<?xml version="1.0" encoding="UTF-8"?><svg xmlns="http://www.w3.org/2000/svg" viewBox="0 0 85.01 92.77"><defs><style>.d,.e{fill:#fff;}.e,.f{fill-rule:evenodd;}.g,.f{fill:#008acf;}.h{fill:#222221;}</style></defs><g id="a"/><g id="b"><g id="c"><path class="d" d="M26.68,35.61h-2.28v-6.63l-4.15,6.58-.09,.14-.09-.14-4.15-6.58v6.63h-2.39v-11.22h2.34v.05l4.26,6.75,4.25-6.75v-.05h2.43v11.22h-.13Zm35.31-8.8h-8.59v2h6.52v2.42h-6.52v2h8.7v2.42h-11.08v-11.26h11.08v2.42h-.11Zm-11.41,8.8h-2.77l-3.45-4.36h-2.28v4.4h-2.47v-11.26h2.39v4.4h2.28l3.45-4.36h3l-.14,.18-4.29,5.43,4.29,5.43,.14,.18-.15-.04Zm-11.85,0h-2.48v-.07l-.92-2.45h-4.22l-.87,2.45v.07h-2.63l.05-.15,4.26-11.06v-.07h2.47v.07l4.42,11.06,.05,.15h-.13Zm-4.22-4.59l-1.35-3.7-1.35,3.7h2.7Z"/><path class="g" d="M25.73,50.98h-7.67c-.92,.07-1.84-.23-2.54-.83-.61-.67-.92-1.56-.86-2.47v-4.26c-.07-.91,.24-1.8,.86-2.47,.7-.6,1.62-.9,2.54-.83h7.75v2.35h-7.78c-.27-.02-.54,.06-.75,.23-.17,.2-.26,.46-.24,.72v4.26c-.02,.26,.07,.52,.24,.72,.21,.17,.48,.25,.75,.23h5.37v-1.91h-2.19v-2.34h4.6v6.6h-.08Zm12.17-3.13c.07,.91-.24,1.8-.85,2.47-.7,.6-1.62,.9-2.54,.83h-4.39c-.92,.07-1.84-.23-2.54-.83-.62-.67-.93-1.56-.86-2.47v-4.6c-.07-.91,.24-1.81,.86-2.48,.71-.6,1.62-.89,2.54-.82h4.39c.92-.07,1.83,.22,2.54,.82,.61,.68,.92,1.57,.85,2.48v4.6Zm-2.41,0v-4.6c.02-.27-.07-.53-.24-.73-.21-.17-.47-.25-.74-.23h-4.39c-.47-.08-.92,.22-1,.69-.02,.1-.02,.21,0,.31v4.6c-.02,.27,.07,.53,.24,.73,.21,.17,.48,.25,.75,.23h4.39c.47,.08,.92-.22,1-.69,.02-.1,.02-.21,0-.31h-.01Zm14.47,0c.07,.91-.24,1.8-.85,2.47-.7,.6-1.62,.9-2.54,.83h-4.39c-.92,.07-1.84-.23-2.54-.83-.62-.67-.93-1.56-.86-2.47v-4.6c0-2.2,1.14-3.3,3.4-3.3h4.39c.92-.07,1.83,.22,2.54,.82,.61,.68,.92,1.57,.85,2.48v4.6Zm-2.41,0v-4.6c.02-.27-.07-.53-.24-.73-.21-.17-.47-.25-.74-.23h-4.39c-.47-.08-.92,.22-1,.69-.02,.1-.02,.21,0,.31v4.6c-.02,.27,.07,.53,.24,.73,.21,.17,.48,.25,.75,.23h4.39c.46,.09,.91-.21,1-.67,.02-.11,.02-.22,0-.33h-.01Zm14.47-.17c.07,.91-.24,1.8-.85,2.47-.71,.6-1.62,.9-2.54,.83h-7.82v-10.86h7.79c.92-.07,1.83,.23,2.54,.83,.61,.67,.92,1.56,.85,2.47v4.26h.03Zm-8.77,.95h5.38c.27,.02,.53-.06,.74-.23,.18-.19,.27-.46,.25-.72v-4.26c0-.63-.33-.95-1-.95h-5.38v6.16h.01Z"/><path class="d" d="M75.66,37.86c-.02,20.89-16.97,37.81-37.86,37.8C16.9,75.64-.02,58.69,0,37.8S16.97-.02,37.86,0c5.88,0,11.69,1.38,16.95,4.02,5.71,2.95,10.64,7.22,14.37,12.46,.43,.6,.76,1.16,.79,1.2h-5C53.83,2.68,32.63-.45,17.63,10.69,2.62,21.83-.51,43.02,10.63,58.03s32.34,18.14,47.34,7c8.59-6.38,13.66-16.45,13.67-27.15h4.02Z"/><path class="f" d="M74.46,28.08l.26-.39c.26-.39,.7-1.19,1.23-2s1.13-1.74,1.69-2.54,1.1-1.52,1.55-2.1,.82-1,1.2-1.43,.77-.79,1.17-1.15,.81-.72,1.14-1c.26-.21,.53-.4,.82-.57,.2-.12,.41-.22,.62-.3,.16-.06,.32-.12,.49-.16l.33-.08q.07,0,0,.09c-.07,.09-.34,.29-.66,.59-.4,.37-.78,.78-1.13,1.2-.42,.5-.86,1.09-1.29,1.7s-.88,1.22-1.26,1.81-.69,1.13-1,1.75-.71,1.33-1,2-.62,1.29-.91,2-.59,1.42-.88,2.17-.55,1.52-.74,2.09-.33,.92-.39,1.11-.06,.22-.07,.25,0,0-.79,.06-2.25,0-3,0-.75,0-.79-.22l-.19-1c-.07-.37-.12-.68-.22-1.14s-.24-1.08-.41-1.7-.35-1.26-.5-1.72-.25-.75-.4-1.14-.35-.87-.56-1.38l-.76-1.56-.43-1q-.08-.17-.06-.17h.84l3.15-.08q.78,0,.83,.1c.05,.1,.14,.33,.28,.67l.49,1.18c.15,.37,.27,.67,.4,1s.28,.76,.41,1.14,.25,.76,.32,1,.12,.44,.14,.53c0,.05,0,.09,0,.14,0,.05,0,.09,0,.14l.08,.11Z"/><polygon class="e" points="4.05 92.77 71.59 92.77 71.59 81.22 4.05 81.22 4.05 92.77 4.05 92.77"/><path class="h" d="M9.35,85.83h1.14c.2,0,.39,.04,.57,.12,.16,.08,.29,.2,.39,.35,.09,.15,.14,.33,.14,.51,0,.18-.05,.36-.14,.52-.1,.15-.23,.27-.39,.35-.18,.08-.37,.12-.57,.12h-.52v1.08h-.62v-3.05h0Zm1.14,1.43c.13,0,.25-.04,.34-.13,.08-.08,.13-.2,.12-.32,0-.12-.04-.23-.12-.31-.09-.08-.22-.12-.34-.12h-.52v.88h.52Zm1.72-1.43h2.05v.56h-1.45v.62h1.05v.53h-1.05v.78h1.48v.57h-2.1v-3.05h.02Zm4.7,3.04l-1.31-1.56v1.59h-.62v-3.05h.62v1.41l1.16-1.41h.75l-1.17,1.46,1.32,1.61-.75-.05Zm3.68-3.05v3.05h-.62v-2.49h-.88c0,.51-.04,1.03-.13,1.53-.03,.28-.15,.55-.32,.78-.14,.15-.33,.23-.53,.22-.09,.02-.17,.02-.26,0v-.6h.12c.13,0,.25-.08,.3-.2,.09-.2,.14-.42,.16-.64,.04-.37,.07-.75,.07-1.12v-.56l2.09,.03Zm2.62,2.65h-1.24l-.18,.4h-.66l1.36-3.1h.2l1.36,3.1h-.67l-.17-.4h0Zm-.62-1.54l-.41,1h.81l-.4-1Zm5-1.16v3.1h-.62v-1.63l-.77,1h-.2l-.77-1v1.63h-.62v-3.1h.2l1.29,1.64,1.29-1.64h.2Zm.83,0h.62v1.17h1.35v-1.17h.62v3.05h-.62v-1.32h-1.35v1.32h-.62v-3.05Zm4.85,3.1c-.28,0-.56-.07-.81-.21-.25-.13-.45-.33-.59-.57-.14-.24-.21-.52-.21-.8,0-.28,.07-.56,.21-.8,.14-.24,.35-.43,.59-.57,.25-.13,.53-.2,.81-.2,.28,0,.56,.07,.81,.2,.25,.14,.45,.33,.6,.57,.14,.24,.21,.52,.21,.8,0,.28-.07,.56-.21,.8-.14,.24-.35,.44-.6,.57-.25,.14-.53,.21-.81,.21Zm0-.58c.17,0,.35-.04,.5-.12,.15-.09,.27-.21,.35-.36,.08-.16,.12-.34,.12-.52,0-.18-.04-.35-.12-.51-.08-.15-.2-.27-.35-.36-.31-.18-.69-.18-1,0-.14,.09-.26,.21-.35,.35-.08,.16-.12,.34-.12,.52,0,.18,.04,.36,.12,.52,.09,.15,.21,.27,.35,.36,.16,.08,.33,.12,.51,.12h-.01Zm2.27-2.52h2v.56h-1.42v.62h1.05v.53h-1.05v.83h1.48v.57h-2.1v-3.05l.04-.06Zm5.85,2.65h-1.24l-.18,.4h-.66l1.36-3.1h.2l1.36,3.1h-.67l-.17-.4h0Zm-.62-1.54l-.41,1h.81l-.4-1Zm2-1.11h2v.56h-1.34v2.49h-.62v-3.05h-.04Zm2.54,0h2.05v.56h-1.42v.62h1v.53h-1v.83h1.48v.57h-2.11v-3.11Zm2.77,0h.62v1.17h1.35v-1.17h.62v3.05h-.62v-1.32h-1.35v1.32h-.62v-3.05Zm4.1,.56h-1v-.56h2.63v.56h-1v2.49h-.63v-2.49h0Zm3.58,2.54c-.28,0-.56-.07-.81-.21-.25-.13-.45-.33-.59-.57-.14-.24-.21-.52-.21-.8,0-.28,.07-.56,.21-.8,.14-.24,.35-.43,.59-.57,.25-.13,.53-.2,.82-.2,.28,0,.55,.06,.79,.2,.23,.13,.42,.32,.55,.55l-.47,.33c-.17-.29-.49-.48-.83-.49-.18,0-.35,.04-.51,.13-.15,.09-.27,.21-.35,.36-.08,.16-.12,.34-.12,.52,0,.18,.04,.35,.12,.51,.08,.15,.2,.27,.35,.36,.16,.08,.33,.12,.51,.12,.36,0,.69-.2,.87-.51l.47,.33c-.13,.23-.32,.43-.55,.56-.25,.13-.52,.2-.8,.2l-.04-.02Zm2.69-2.54h-1v-.56h2.57v.56h-1v2.49h-.63v-2.49h.06Zm4,.84c.16,.06,.29,.15,.4,.28,.09,.14,.14,.3,.14,.47,0,.16-.04,.32-.13,.46-.08,.14-.2,.25-.35,.32-.16,.08-.34,.12-.52,.12h-1.36v-3.05h1.08c.17,0,.34,.04,.5,.11,.14,.06,.26,.17,.34,.3,.08,.13,.12,.28,.12,.44,0,.21-.07,.41-.22,.55h0Zm-1.22-.86v.69h.43c.1,0,.21-.02,.29-.09,.07-.07,.11-.16,.11-.26,0-.1-.04-.19-.11-.25-.08-.07-.19-.1-.29-.09h-.43Zm.71,2c.12,0,.23-.03,.32-.1,.15-.16,.15-.4,0-.56-.09-.07-.2-.11-.32-.1h-.71v.76h.71Zm3.12,.59c-.28,0-.56-.07-.81-.21-.25-.13-.45-.33-.59-.57-.14-.24-.21-.52-.21-.8,0-.28,.07-.56,.21-.8,.14-.24,.35-.43,.59-.57,.25-.13,.53-.2,.81-.2,.28,0,.56,.07,.81,.2,.24,.13,.45,.33,.59,.57,.15,.24,.22,.52,.22,.8,0,.28-.07,.56-.22,.8-.14,.24-.34,.44-.59,.57-.25,.14-.53,.21-.81,.21Zm0-.58c.18,0,.35-.04,.51-.12,.14-.09,.26-.21,.35-.36,.08-.16,.12-.34,.12-.52,0-.18-.04-.35-.12-.51-.09-.15-.21-.27-.35-.36-.31-.18-.69-.18-1,0-.15,.08-.27,.2-.35,.35-.08,.16-.12,.34-.12,.52,0,.18,.04,.36,.12,.52,.08,.15,.2,.27,.35,.36,.15,.08,.33,.12,.5,.12h-.01Z"/></g></g></svg>