<?xml version="1.0" encoding="UTF-8"?><svg id="a" xmlns="http://www.w3.org/2000/svg" viewBox="0 0 97.25 97.25"><defs><style>.b{fill:#fff;}.c{fill:#172039;}.d,.e{fill:#008acf;}.e{fill-rule:evenodd;}</style></defs><circle class="c" cx="48.63" cy="48.63" r="48.63"/><path class="b" d="M37.48,46.41h-2.28v-6.63l-4.15,6.58-.09,.14-.09-.14-4.15-6.58v6.63h-2.39v-11.22h2.34v.05l4.26,6.75,4.25-6.75v-.05h2.43v11.22h-.13Zm35.31-8.8h-8.59v2h6.52v2.42h-6.52v2h8.7v2.42h-11.08v-11.26h11.08v2.42h-.11Zm-11.41,8.8h-2.77l-3.45-4.36h-2.28v4.4h-2.47v-11.26h2.39v4.4h2.28l3.45-4.36h3l-.14,.18-4.29,5.43,4.29,5.43,.14,.18-.15-.04Zm-11.85,0h-2.48v-.07l-.92-2.45h-4.22l-.87,2.45v.07h-2.63l.05-.15,4.26-11.06v-.07h2.47v.07l4.42,11.06,.05,.15h-.13Zm-4.22-4.59l-1.35-3.7-1.35,3.7h2.7Z"/><path class="d" d="M36.53,61.78h-7.67c-.92,.07-1.84-.23-2.54-.83-.61-.67-.92-1.56-.86-2.47v-4.26c-.07-.91,.24-1.8,.86-2.47,.7-.6,1.62-.9,2.54-.83h7.75v2.35h-7.78c-.27-.02-.54,.06-.75,.23-.17,.2-.26,.46-.24,.72v4.26c-.02,.26,.07,.52,.24,.72,.21,.17,.48,.25,.75,.23h5.37v-1.91h-2.19v-2.34h4.6v6.6h-.08Zm12.17-3.13c.07,.91-.24,1.8-.85,2.47-.7,.6-1.62,.9-2.54,.83h-4.39c-.92,.07-1.84-.23-2.54-.83-.62-.67-.93-1.56-.86-2.47v-4.6c-.07-.91,.24-1.81,.86-2.48,.71-.6,1.62-.89,2.54-.82h4.39c.92-.07,1.83,.22,2.54,.82,.61,.68,.92,1.57,.85,2.48v4.6Zm-2.41,0v-4.6c.02-.27-.07-.53-.24-.73-.21-.17-.47-.25-.74-.23h-4.39c-.47-.08-.92,.22-1,.69-.02,.1-.02,.21,0,.31v4.6c-.02,.27,.07,.53,.24,.73,.21,.17,.48,.25,.75,.23h4.39c.47,.08,.92-.22,1-.69,.02-.1,.02-.21,0-.31h-.01Zm14.47,0c.07,.91-.24,1.8-.85,2.47-.7,.6-1.62,.9-2.54,.83h-4.39c-.92,.07-1.84-.23-2.54-.83-.62-.67-.93-1.56-.86-2.47v-4.6c0-2.2,1.14-3.3,3.4-3.3h4.39c.92-.07,1.83,.22,2.54,.82,.61,.68,.92,1.57,.85,2.48v4.6Zm-2.41,0v-4.6c.02-.27-.07-.53-.24-.73-.21-.17-.47-.25-.74-.23h-4.39c-.47-.08-.92,.22-1,.69-.02,.1-.02,.21,0,.31v4.6c-.02,.27,.07,.53,.24,.73,.21,.17,.48,.25,.75,.23h4.39c.46,.09,.91-.21,1-.67,.02-.11,.02-.22,0-.33h-.01Zm14.47-.17c.07,.91-.24,1.8-.85,2.47-.71,.6-1.62,.9-2.54,.83h-7.82v-10.86h7.79c.92-.07,1.83,.23,2.54,.83,.61,.67,.92,1.56,.85,2.47v4.26h.03Zm-8.77,.95h5.38c.27,.02,.53-.06,.74-.23,.18-.19,.27-.46,.25-.72v-4.26c0-.63-.33-.95-1-.95h-5.38v6.16h.01Z"/><path class="b" d="M86.46,48.66c-.02,20.89-16.97,37.81-37.86,37.8-20.89-.02-37.81-16.97-37.8-37.86S27.77,10.78,48.66,10.8c5.88,0,11.69,1.38,16.95,4.02,5.71,2.95,10.64,7.22,14.37,12.46,.43,.6,.76,1.16,.79,1.2h-5c-11.14-15.01-32.34-18.14-47.34-7-15.01,11.14-18.14,32.34-7,47.34s32.34,18.14,47.34,7c8.59-6.38,13.66-16.45,13.67-27.15h4.02Z"/><path class="e" d="M85.26,38.88l.26-.39c.26-.39,.7-1.19,1.23-2s1.13-1.74,1.69-2.54,1.1-1.52,1.55-2.1,.82-1,1.2-1.43,.77-.79,1.17-1.15,.81-.72,1.14-1c.26-.21,.53-.4,.82-.57,.2-.12,.41-.22,.62-.3,.16-.06,.32-.12,.49-.16l.33-.08q.07,0,0,.09c-.07,.09-.34,.29-.66,.59-.4,.37-.78,.78-1.13,1.2-.42,.5-.86,1.09-1.29,1.7s-.88,1.22-1.26,1.81-.69,1.13-1,1.75-.71,1.33-1,2-.62,1.29-.91,2-.59,1.42-.88,2.17-.55,1.52-.74,2.09-.33,.92-.39,1.11-.06,.22-.07,.25,0,0-.79,.06-2.25,0-3,0-.75,0-.79-.22l-.19-1c-.07-.37-.12-.68-.22-1.14s-.24-1.08-.41-1.7-.35-1.26-.5-1.72-.25-.75-.4-1.14-.35-.87-.56-1.38l-.76-1.56-.43-1q-.08-.17-.06-.17h.84l3.15-.08q.78,0,.83,.1c.05,.1,.14,.33,.28,.67l.49,1.18c.15,.37,.27,.67,.4,1s.28,.76,.41,1.14,.25,.76,.32,1,.12,.44,.14,.53c0,.05,0,.09,0,.14,0,.05,0,.09,0,.14l.08,.11Z"/></svg>